<?xml version="1.0" encoding="UTF-8" standalone="no" ?>
<!DOCTYPE svg PUBLIC "-//W3C//DTD SVG 1.1//EN" "http://www.w3.org/Graphics/SVG/1.1/DTD/svg11.dtd">
<svg xmlns="http://www.w3.org/2000/svg" xmlns:xlink="http://www.w3.org/1999/xlink" version="1.1" width="500" height="400" viewBox="0 0 500 400" xml:space="preserve">
<desc>Created with Fabric.js 4.2.0</desc>
<defs>
</defs>
<rect x="0" y="0" width="100%" height="100%" fill="transparent"></rect>
<g transform="matrix(Infinity NaN NaN Infinity 0 0)" id="5491525a-6536-4a2d-9b23-19d9d0b36645"  >
</g>
<g transform="matrix(1 0 0 1 250 200)" id="29ee2dac-df58-4e7c-85bb-4ef7708b0809"  >
<rect style="stroke: none; stroke-width: 1; stroke-dasharray: none; stroke-linecap: butt; stroke-dashoffset: 0; stroke-linejoin: miter; stroke-miterlimit: 4; fill: rgb(255,255,255); fill-rule: nonzero; opacity: 1;" vector-effect="non-scaling-stroke"  x="-250" y="-200" rx="0" ry="0" width="500" height="400" />
</g>
<g transform="matrix(2 0 0 2 250 200)" style="" id="a8f5b08b-606b-4580-83e9-8209885968e4"  >
		<text xml:space="preserve" font-family="Raleway" font-size="129" font-style="normal" font-weight="300" text-decoration="overline underline" style="stroke: none; stroke-width: 1; stroke-dasharray: none; stroke-linecap: butt; stroke-dashoffset: 0; stroke-linejoin: miter; stroke-miterlimit: 4; fill: rgb(0,0,0); fill-rule: nonzero; opacity: 1; white-space: pre;" ><tspan x="-93.16" y="40.52" >DV</tspan></text>
</g>
<g transform="matrix(4.22 0 0 1.79 250 200)" id="7e1e5dba-6bdd-46f2-891a-175406765d85"  >
<path style="stroke: rgb(0,0,0); stroke-width: 0; stroke-dasharray: none; stroke-linecap: butt; stroke-dashoffset: 0; stroke-linejoin: miter; stroke-miterlimit: 4; fill: rgb(255,255,255); fill-rule: nonzero; opacity: 1;" vector-effect="non-scaling-stroke"  transform=" translate(-50, -50)" d="M 94.75 50 C 94.75 56.213 89.514 61.25 83.054 61.25 L 16.946 61.25 C 10.486 61.25 5.25 56.213 5.25 50 L 5.25 50 C 5.25 43.787 10.486 38.75 16.945999999999998 38.75 L 83.053 38.75 C 89.514 38.75 94.75 43.787 94.75 50 L 94.75 50 z" stroke-linecap="round" />
</g>
<g transform="matrix(1.37 0 0 1.37 250 200)" style="" id="32b9aa55-058f-471f-bfd0-7003b0301227"  >
		<text xml:space="preserve" font-family="Lato" font-size="20" font-style="normal" font-weight="100" style="stroke: none; stroke-width: 1; stroke-dasharray: none; stroke-linecap: butt; stroke-dashoffset: 0; stroke-linejoin: miter; stroke-miterlimit: 4; fill: rgb(0,0,0); fill-rule: nonzero; opacity: 1; white-space: pre;" ><tspan x="-111.93" y="6.28" >D</tspan><tspan x="-84.09" y="6.28" >E</tspan><tspan x="-58.47" y="6.28" >V</tspan><tspan x="-30.63" y="6.28" >E</tspan><tspan x="-5.01" y="6.28" >L</tspan><tspan x="20.61" y="6.28" >O</tspan><tspan x="48.45" y="6.28" >P</tspan><tspan x="72.97" y="6.28" >E</tspan><tspan x="98.59" y="6.28" >R</tspan></text>
</g>
</svg>